{"title":"Match Of The Day 2016 08 13 720p HDTV HEVC 2CH x265","uid":15564708,"size":676857908,"categoryP":"video","categoryS":"hd___tv_shows","magnet":"?xt=urn:btih:f71b593af478e45e007ec5e35964b10285377315&amp;dn=Match+Of+The+Day+2016+08+13+720p+HDTV+HEVC+2CH+x265&amp;tr=udp%3A%2F%2Ftracker.leechers-paradise.org%3A6969&amp;tr=udp%3A%2F%2Fzer0day.ch%3A1337&amp;tr=udp%3A%2F%2Fopen.demonii.com%3A1337&amp;tr=udp%3A%2F%2Ftracker.coppersurfer.tk%3A6969&amp;tr=udp%3A%2F%2Fexodus.desync.com%3A6969","seeders":2,"leechers":2,"uploader":"nayhtut","files":1,"time":1471182397,"description":"[Screenshots]\r\n \nhttps://s4.postimg.org/xmwdtmxlp/Match_Of_The_Day_2016_08_13_720p_HDTV_HEVC_2_CH_x.jpg \nhttps://s4.postimg.org/s000w5v31/Match_Of_The_Day_2016_08_13_720p_HDTV_HEVC_2_CH_x.jpg \nhttps://s4.postimg.org/evzigl9ct/Match_Of_The_Day_2016_08_13_720p_HDTV_HEVC_2_CH_x.jpg \nhttps://s4.postimg.org/hrclngdct/Match_Of_The_Day_2016_08_13_720p_HDTV_HEVC_2_CH_x.jpg\r\n\r\n   \r\nSource: Match Of The Day 2016 08 13 720p HDTV x264-LiNKLE  (2.87 GB)\r\n\r\n\r\n__--__--__--__--__--__--__--__--__--__--__--__--__--\r\n\r\n\r\nComplete name                            : Match.Of.The.Day.2016.08.13.720p.HDTV.HEVC.2CH.x265.mkv\r\nFormat                                   : Matroska\r\nFormat version                           : Version 4 / Version 2\r\nFile size                                : 646 MiB\r\nDuration                                 : 1h 24mn\r\nOverall bit rate                         : 1 074 Kbps\r\nWriting application                      : Lavf57.25.100\r\nWriting library                          : Lavf57.25.100\r\n\r\nVideo\r\n\r\nID                                       : 1\r\nFormat                                   : V_MPEGH/ISO/HEVC\r\nCodec ID                                 : V_MPEGH/ISO/HEVC\r\nDuration                                 : 1h 24mn\r\nBit rate                                 : 861 Kbps\r\nWidth                                    : 1 280 pixels\r\nHeight                                   : 720 pixels\r\nDisplay aspect ratio                     : 16:9\r\nFrame rate                               : 25.000 fps\r\nBits/(Pixel*Frame)                       : 0.037\r\nStream size                              : 517 MiB (80%)\r\nWriting library                          : Lavc57.48.101 libx265\r\nLanguage                                 : English\r\nDefault                                  : Yes\r\nForced                                   : No\r\nDURATION                                 : 01:24:00.946000000\r\n\r\nAudio\r\n\r\nID                                       : 2\r\nFormat                                   : AC-3\r\nFormat/Info                              : Audio Coding 3\r\nMode extension                           : CM (complete main)\r\nFormat settings, Endianness              : Big\r\nCodec ID                                 : A_AC3\r\nDuration                                 : 1h 24mn\r\nBit rate mode                            : Constant\r\nBit rate                                 : 192 Kbps\r\nChannel(s)                               : 2 channels\r\nChannel positions                        : Front: L R\r\nSampling rate                            : 48.0 KHz\r\nBit depth                                : 16 bits\r\nCompression mode                         : Lossy\r\nStream size                              : 115 MiB (18%)\r\nWriting library                          : Lavc57.24.102 ac3\r\nLanguage                                 : English\r\nDefault                                  : Yes\r\nForced                                   : No\r\nDURATION                                 : 01:24:00.939000000\r\n\r\n\r\n__--__--__--__--__--__--__--__--__--__--__--__--__--\r\n\r\n\r\nIMDb: http://www.imdb.com/title/tt0135733\r\n\r\n\r\n__--__--__--__--__--__--__--__--__--__--__--__--__--\r\n\r\n\r\nAfter adding torrent with magnet link,\r\n\r\nplease add this  following trackers list to the torrent for better seeds.\r\n\r\n\r\nudp://tracker.coppersurfer.tk:6969/announce\r\n\r\nudp://tracker.opentrackr.org:1337/announce\r\n \nhttp://tracker.baravik.org:6970/announce\r\n \nhttp://tracker2.wasabii.com.tw:6969/announce\r\n\r\nudp://9.rarbg.me:2710/announce\r\n\r\n\r\n__--__--__--__--__--__--__--__--__--__--__--__--__--\r\n\r\n\r\nEnjoy!","torrent":{"xt":"urn:btih:f71b593af478e45e007ec5e35964b10285377315","amp;dn":"Match+Of+The+Day+2016+08+13+720p+HDTV+HEVC+2CH+x265","amp;tr":["udp%3A%2F%2Ftracker.leechers-paradise.org%3A6969","udp%3A%2F%2Fzer0day.ch%3A1337","udp%3A%2F%2Fopen.demonii.com%3A1337","udp%3A%2F%2Ftracker.coppersurfer.tk%3A6969","udp%3A%2F%2Fexodus.desync.com%3A6969"],"infoHash":"f71b593af478e45e007ec5e35964b10285377315","infoHashBuffer":{"type":"Buffer","data":[247,27,89,58,244,120,228,94,0,126,197,227,89,100,177,2,133,55,115,21]},"announce":[],"urlList":[]}}